<?xml version="1.0" encoding="UTF-8" standalone="no"?>
<!DOCTYPE svg PUBLIC "-//W3C//DTD SVG 1.1//EN" "http://www.w3.org/Graphics/SVG/1.1/DTD/svg11.dtd">
<svg width="100%" height="100%" viewBox="0 0 500 500" version="1.1" xmlns="http://www.w3.org/2000/svg" xmlns:xlink="http://www.w3.org/1999/xlink" xml:space="preserve" xmlns:serif="http://www.serif.com/" style="fill-rule:evenodd;clip-rule:evenodd;stroke-linejoin:round;stroke-miterlimit:1.41421;">
    <g id="CABELLO" transform="matrix(1.00426,0,0,1.00426,-297.251,-73.3795)">
        <g transform="matrix(1.06667,0,0,1.06667,93.0069,127.907)">
            <circle cx="545.5" cy="112.5" r="22.5" style="fill:rgb(192,0,57);"/>
        </g>
        <g transform="matrix(1.06667,0,0,1.06667,89.0766,161.314)">
            <circle cx="545.5" cy="112.5" r="22.5" style="fill:rgb(192,0,57);"/>
        </g>
        <g transform="matrix(1.06667,0,0,1.06667,75.6013,194.721)">
            <circle cx="545.5" cy="112.5" r="22.5" style="fill:rgb(192,0,57);"/>
        </g>
        <g transform="matrix(1.06667,0,0,1.06667,54.2655,222.233)">
            <circle cx="545.5" cy="112.5" r="22.5" style="fill:rgb(192,0,57);"/>
        </g>
        <g transform="matrix(1.06667,0,0,1.06667,26.7536,243.569)">
            <circle cx="545.5" cy="112.5" r="22.5" style="fill:rgb(192,0,57);"/>
        </g>
        <g transform="matrix(1.06667,0,0,1.06667,-107.999,243.85)">
            <circle cx="545.5" cy="112.5" r="22.5" style="fill:rgb(192,0,57);"/>
        </g>
        <g transform="matrix(1.06667,0,0,1.06667,-136.072,222.233)">
            <circle cx="545.5" cy="112.5" r="22.5" style="fill:rgb(192,0,57);"/>
        </g>
        <g transform="matrix(1.06667,0,0,1.06667,-157.127,194.721)">
            <circle cx="545.5" cy="112.5" r="22.5" style="fill:rgb(192,0,57);"/>
        </g>
        <g transform="matrix(1.06667,0,0,1.06667,-170.603,161.595)">
            <circle cx="545.5" cy="112.5" r="22.5" style="fill:rgb(192,0,57);"/>
        </g>
        <g transform="matrix(1.06667,0,0,1.06667,-175.094,127.064)">
            <circle cx="545.5" cy="112.5" r="22.5" style="fill:rgb(192,0,57);"/>
        </g>
        <g transform="matrix(1.06667,0,0,1.06667,-156.847,59.9688)">
            <circle cx="545.5" cy="112.5" r="22.5" style="fill:rgb(192,0,57);"/>
            <clipPath id="_clip1">
                <circle cx="545.5" cy="112.5" r="22.5"/>
            </clipPath>
            <g clip-path="url(#_clip1)">
                <g transform="matrix(0.949755,0,0,0.9375,138.551,-56.2208)">
                    <ellipse cx="540" cy="147" rx="153" ry="106" style="fill:rgb(255,43,102);"/>
                </g>
            </g>
        </g>
        <g transform="matrix(1.06667,0,0,1.06667,-40.8667,-7)">
            <circle cx="545.5" cy="112.5" r="22.5" style="fill:rgb(192,0,57);"/>
            <clipPath id="_clip2">
                <circle cx="545.5" cy="112.5" r="22.5"/>
            </clipPath>
            <g clip-path="url(#_clip2)">
                <g transform="matrix(0.949755,0,0,0.9375,29.8199,6.5625)">
                    <ellipse cx="540" cy="147" rx="153" ry="106" style="fill:rgb(255,43,102);"/>
                </g>
            </g>
        </g>
        <g transform="matrix(1.06667,0,0,1.06667,-5.77489,-2.50825)">
            <circle cx="545.5" cy="112.5" r="22.5" style="fill:rgb(192,0,57);"/>
            <clipPath id="_clip3">
                <circle cx="545.5" cy="112.5" r="22.5"/>
            </clipPath>
            <g clip-path="url(#_clip3)">
                <g transform="matrix(0.949755,0,0,0.9375,-3.07869,2.35149)">
                    <ellipse cx="540" cy="147" rx="153" ry="106" style="fill:rgb(255,43,102);"/>
                </g>
            </g>
        </g>
        <g transform="matrix(1.06667,0,0,1.06667,26.7903,11.5285)">
            <circle cx="545.5" cy="112.5" r="22.5" style="fill:rgb(192,0,57);"/>
            <clipPath id="_clip4">
                <circle cx="545.5" cy="112.5" r="22.5"/>
            </clipPath>
            <g clip-path="url(#_clip4)">
                <g transform="matrix(0.949755,0,0,0.9375,-33.6085,-10.8079)">
                    <ellipse cx="540" cy="147" rx="153" ry="106" style="fill:rgb(255,43,102);"/>
                </g>
            </g>
        </g>
        <g transform="matrix(1.06667,0,0,1.06667,54.3022,32.3028)">
            <circle cx="545.5" cy="112.5" r="22.5" style="fill:rgb(192,0,57);"/>
            <clipPath id="_clip5">
                <circle cx="545.5" cy="112.5" r="22.5"/>
            </clipPath>
            <g clip-path="url(#_clip5)">
                <g transform="matrix(0.949755,0,0,0.9375,-59.401,-30.2839)">
                    <ellipse cx="540" cy="147" rx="153" ry="106" style="fill:rgb(255,43,102);"/>
                </g>
            </g>
        </g>
        <g transform="matrix(1.06667,0,0,1.06667,75.638,60.657)">
            <circle cx="545.5" cy="112.5" r="22.5" style="fill:rgb(192,0,57);"/>
            <clipPath id="_clip6">
                <circle cx="545.5" cy="112.5" r="22.5"/>
            </clipPath>
            <g clip-path="url(#_clip6)">
                <g transform="matrix(0.949755,0,0,0.9375,-79.4033,-56.8659)">
                    <ellipse cx="540" cy="147" rx="153" ry="106" style="fill:rgb(255,43,102);"/>
                </g>
            </g>
        </g>
        <g transform="matrix(1.06667,0,0,1.06667,-170.883,93.0955)">
            <circle cx="545.5" cy="112.5" r="22.5" style="fill:rgb(192,0,57);"/>
            <clipPath id="_clip7">
                <circle cx="545.5" cy="112.5" r="22.5"/>
            </clipPath>
            <g clip-path="url(#_clip7)">
                <g transform="matrix(1,0,0,1,1.09585,-19.7589)">
                    <circle cx="545.5" cy="112.5" r="22.5" style="fill:rgb(255,43,102);"/>
                </g>
            </g>
        </g>
        <g transform="matrix(1.06667,0,0,1.06667,89.638,93.657)">
            <circle cx="545.5" cy="112.5" r="22.5" style="fill:rgb(192,0,57);"/>
            <clipPath id="_clip8">
                <circle cx="545.5" cy="112.5" r="22.5"/>
            </clipPath>
            <g clip-path="url(#_clip8)">
                <g transform="matrix(1,0,0,1,-2.40267,-19.8771)">
                    <circle cx="545.5" cy="112.5" r="22.5" style="fill:rgb(255,43,102);"/>
                </g>
            </g>
        </g>
        <g transform="matrix(1.06667,0,0,1.06667,-135.792,31.6147)">
            <circle cx="545.5" cy="112.5" r="22.5" style="fill:rgb(255,155,101);"/>
            <clipPath id="_clip9">
                <circle cx="545.5" cy="112.5" r="22.5"/>
            </clipPath>
            <g clip-path="url(#_clip9)">
                <g transform="matrix(0.949755,0,0,0.9375,118.812,-29.6388)">
                    <ellipse cx="540" cy="147" rx="153" ry="106" style="fill:rgb(255,43,102);"/>
                </g>
            </g>
        </g>
        <g transform="matrix(1.06667,0,0,1.06667,-107.999,10.8404)">
            <circle cx="545.5" cy="112.5" r="22.5" style="fill:rgb(192,0,57);"/>
            <clipPath id="_clip10">
                <circle cx="545.5" cy="112.5" r="22.5"/>
            </clipPath>
            <g clip-path="url(#_clip10)">
                <g transform="matrix(0.949755,0,0,0.9375,92.7563,-10.1628)">
                    <ellipse cx="540" cy="147" rx="153" ry="106" style="fill:rgb(255,43,102);"/>
                </g>
            </g>
        </g>
        <g transform="matrix(1.06667,0,0,1.06667,-75.7144,-2.91563)">
            <circle cx="545.5" cy="112.5" r="22.5" style="fill:rgb(192,0,57);"/>
            <clipPath id="_clip11">
                <circle cx="545.5" cy="112.5" r="22.5"/>
            </clipPath>
            <g clip-path="url(#_clip11)">
                <g transform="matrix(0.949755,0,0,0.9375,62.4896,2.7334)">
                    <ellipse cx="540" cy="147" rx="153" ry="106" style="fill:rgb(255,43,102);"/>
                </g>
            </g>
        </g>
        <g transform="matrix(0.881459,0,0,0.878451,-6.70821,-5.68477)">
            <circle cx="622.5" cy="290.5" r="164.5" style="fill:rgb(192,0,57);"/>
            <clipPath id="_clip12">
                <circle cx="622.5" cy="290.5" r="164.5"/>
            </clipPath>
            <g clip-path="url(#_clip12)">
                <g id="CABELLO1" serif:id="CABELLO" transform="matrix(1.13448,0,0,1.13837,7.61034,-95.9818)">
                    <g transform="matrix(1.06667,0,0,1.06667,54.3022,32.3028)">
                        <circle cx="545.5" cy="112.5" r="22.5" style="fill:rgb(255,43,102);"/>
                    </g>
                    <g transform="matrix(1.06667,0,0,1.06667,75.638,60.657)">
                        <circle cx="545.5" cy="112.5" r="22.5" style="fill:rgb(255,43,102);"/>
                    </g>
                    <g transform="matrix(1.06667,0,0,1.06667,89.638,93.657)">
                        <circle cx="545.5" cy="112.5" r="22.5" style="fill:rgb(255,43,102);"/>
                    </g>
                    <g transform="matrix(1.06667,0,0,1.06667,93.0069,127.907)">
                        <circle cx="545.5" cy="112.5" r="22.5" style="fill:rgb(255,43,102);"/>
                    </g>
                    <g transform="matrix(1.06667,0,0,1.06667,89.0766,161.314)">
                        <circle cx="545.5" cy="112.5" r="22.5" style="fill:rgb(255,43,102);"/>
                    </g>
                    <g transform="matrix(1.06667,0,0,1.06667,75.6013,194.721)">
                        <circle cx="545.5" cy="112.5" r="22.5" style="fill:rgb(255,43,102);"/>
                    </g>
                    <g transform="matrix(1.06667,0,0,1.06667,54.2655,222.233)">
                        <circle cx="545.5" cy="112.5" r="22.5" style="fill:rgb(255,43,102);"/>
                    </g>
                    <g transform="matrix(1.06667,0,0,1.06667,26.7536,243.569)">
                        <circle cx="545.5" cy="112.5" r="22.5" style="fill:rgb(255,43,102);"/>
                    </g>
                    <g transform="matrix(1.06667,0,0,1.06667,-107.999,243.85)">
                        <circle cx="545.5" cy="112.5" r="22.5" style="fill:rgb(255,43,102);"/>
                    </g>
                    <g transform="matrix(1.06667,0,0,1.06667,-136.072,222.233)">
                        <circle cx="545.5" cy="112.5" r="22.5" style="fill:rgb(255,43,102);"/>
                    </g>
                    <g transform="matrix(1.06667,0,0,1.06667,-157.127,194.721)">
                        <circle cx="545.5" cy="112.5" r="22.5" style="fill:rgb(255,43,102);"/>
                    </g>
                    <g transform="matrix(1.06667,0,0,1.06667,-170.603,161.595)">
                        <circle cx="545.5" cy="112.5" r="22.5" style="fill:rgb(255,43,102);"/>
                    </g>
                    <g transform="matrix(1.06667,0,0,1.06667,-175.094,127.064)">
                        <circle cx="545.5" cy="112.5" r="22.5" style="fill:rgb(255,43,102);"/>
                    </g>
                    <g transform="matrix(1.06667,0,0,1.06667,-170.883,93.0955)">
                        <circle cx="545.5" cy="112.5" r="22.5" style="fill:rgb(255,43,102);"/>
                    </g>
                    <g transform="matrix(1.06667,0,0,1.06667,-156.847,59.9688)">
                        <circle cx="545.5" cy="112.5" r="22.5" style="fill:rgb(255,43,102);"/>
                    </g>
                    <g transform="matrix(1.06667,0,0,1.06667,-135.792,31.6147)">
                        <circle cx="545.5" cy="112.5" r="22.5" style="fill:rgb(255,43,102);"/>
                    </g>
                    <g transform="matrix(0.881459,0,0,0.878451,-6.70821,-5.68477)">
                        <circle cx="622.5" cy="290.5" r="164.5" style="fill:rgb(255,43,102);"/>
                    </g>
                </g>
            </g>
        </g>
    </g>
    <g id="machas-debajo-del-pelo" serif:id="machas debajo del pelo" transform="matrix(1.00426,0,0,1.00426,-297.251,-73.3795)">
        <g transform="matrix(1.0125,0,0,1.875,-5.75,-301.75)">
            <path d="M620,337.107C620,333.184 614.103,330 606.839,330L473.161,330C465.897,330 460,333.184 460,337.107L460,338.893C460,342.816 465.897,346 473.161,346L606.839,346C614.103,346 620,342.816 620,338.893L620,337.107Z" style="fill:rgb(135,0,7);"/>
        </g>
        <g transform="matrix(1,0,0,1,-7,-1)">
            <circle cx="436.5" cy="293.5" r="15.5" style="fill:rgb(135,0,7);"/>
        </g>
        <g transform="matrix(0.322581,0,0,0.322581,303.815,241.3)">
            <circle cx="436.5" cy="293.5" r="15.5" style="fill:rgb(135,0,7);"/>
        </g>
        <g transform="matrix(0.774194,0,0,0.774194,314.586,74.8527)">
            <circle cx="436.5" cy="293.5" r="15.5" style="fill:rgb(135,0,7);"/>
        </g>
    </g>
    <g id="mano" transform="matrix(1.00426,0,0,1.00426,-297.251,-73.3795)">
        <g transform="matrix(1.89962,0,0,1.02273,-431.123,-14.3409)">
            <path d="M500,441.647C500,424.733 492.607,411 483.5,411C474.393,411 467,424.733 467,441.647L467,468.353C467,485.267 474.393,499 483.5,499C492.607,499 500,485.267 500,468.353L500,441.647Z" style="fill:rgb(255,162,159);"/>
        </g>
        <g transform="matrix(0.98,0,0,0.98,2.02,0.34)">
            <circle cx="476" cy="492" r="25" style="fill:rgb(255,120,120);"/>
            <clipPath id="_clip13">
                <circle cx="476" cy="492" r="25"/>
            </clipPath>
            <g clip-path="url(#_clip13)">
                <g transform="matrix(1,0,0,1,6.12245,-7.14286)">
                    <circle cx="476" cy="492" r="25" style="fill:rgb(255,161,159);"/>
                </g>
            </g>
        </g>
        <g transform="matrix(1.16667,0,0,1,-76.5,0)">
            <path d="M465,440C465,438.344 463.848,437 462.429,437L455.571,437C454.152,437 453,438.344 453,440C453,441.656 454.152,443 455.571,443L462.429,443C463.848,443 465,441.656 465,440Z" style="fill:rgb(255,120,120);"/>
        </g>
        <g transform="matrix(1.16667,0,0,1,-76.5,8.0492)">
            <path d="M465,440C465,438.344 463.848,437 462.429,437L455.571,437C454.152,437 453,438.344 453,440C453,441.656 454.152,443 455.571,443L462.429,443C463.848,443 465,441.656 465,440Z" style="fill:rgb(255,120,120);"/>
        </g>
        <g transform="matrix(1.16667,0,0,1,-76.5,15.9451)">
            <path d="M465,440C465,438.344 463.848,437 462.429,437L455.571,437C454.152,437 453,438.344 453,440C453,441.656 454.152,443 455.571,443L462.429,443C463.848,443 465,441.656 465,440Z" style="fill:rgb(255,120,120);"/>
        </g>
    </g>
    <g id="mano1" serif:id="mano" transform="matrix(-1.00426,0,0,1.00426,789.064,-73.3795)">
        <g transform="matrix(1.89962,0,0,1.02273,-431.123,-14.3409)">
            <path d="M500,441.647C500,424.733 492.607,411 483.5,411C474.393,411 467,424.733 467,441.647L467,468.353C467,485.267 474.393,499 483.5,499C492.607,499 500,485.267 500,468.353L500,441.647Z" style="fill:rgb(255,162,159);"/>
        </g>
        <g transform="matrix(0.98,0,0,0.98,2.02,0.34)">
            <circle cx="476" cy="492" r="25" style="fill:rgb(255,120,120);"/>
            <clipPath id="_clip14">
                <circle cx="476" cy="492" r="25"/>
            </clipPath>
            <g clip-path="url(#_clip14)">
                <g transform="matrix(1,0,0,1,6.12245,-7.14286)">
                    <circle cx="476" cy="492" r="25" style="fill:rgb(255,161,159);"/>
                </g>
            </g>
        </g>
        <g transform="matrix(1.16667,0,0,1,-76.5,0)">
            <path d="M465,440C465,438.344 463.848,437 462.429,437L455.571,437C454.152,437 453,438.344 453,440C453,441.656 454.152,443 455.571,443L462.429,443C463.848,443 465,441.656 465,440Z" style="fill:rgb(255,120,120);"/>
        </g>
        <g transform="matrix(1.16667,0,0,1,-76.5,8.0492)">
            <path d="M465,440C465,438.344 463.848,437 462.429,437L455.571,437C454.152,437 453,438.344 453,440C453,441.656 454.152,443 455.571,443L462.429,443C463.848,443 465,441.656 465,440Z" style="fill:rgb(255,120,120);"/>
        </g>
        <g transform="matrix(1.16667,0,0,1,-76.5,15.9451)">
            <path d="M465,440C465,438.344 463.848,437 462.429,437L455.571,437C454.152,437 453,438.344 453,440C453,441.656 454.152,443 455.571,443L462.429,443C463.848,443 465,441.656 465,440Z" style="fill:rgb(255,120,120);"/>
        </g>
    </g>
    <g id="pie-y-pierna" serif:id="pie y pierna" transform="matrix(-1.00426,0,0,1.00426,789.455,-73.3795)">
        <rect x="487" y="505" width="34" height="45" style="fill:rgb(255,161,149);"/>
        <g transform="matrix(0.6875,0,0,1.35828,181.325,-191.41)">
            <path d="M504,541.178C504,536.665 496.76,533 487.842,533L472.158,533C463.24,533 456,536.665 456,541.178L456,542.822C456,547.335 463.24,551 472.158,551L487.842,551C496.76,551 504,547.335 504,542.822L504,541.178Z" style="fill:rgb(255,161,149);"/>
        </g>
        <g transform="matrix(0.854167,0,0,1.46939,81.3252,-252.633)">
            <path d="M504,541.178C504,536.665 497.696,533 489.931,533L470.069,533C462.304,533 456,536.665 456,541.178L456,542.822C456,547.335 462.304,551 470.069,551L489.931,551C497.696,551 504,547.335 504,542.822L504,541.178Z" style="fill:rgb(0,50,87);"/>
        </g>
        <g transform="matrix(1.02083,0,0,1.44444,-9.5,-238.889)">
            <path d="M504,540.144C504,536.201 499.47,533 493.891,533L466.109,533C460.53,533 456,536.201 456,540.144L456,543.856C456,547.799 460.53,551 466.109,551L493.891,551C499.47,551 504,547.799 504,543.856L504,540.144Z" style="fill:rgb(255,161,149);"/>
        </g>
        <rect x="446" y="548" width="89" height="10" style="fill:rgb(0,50,87);"/>
        <g transform="matrix(1.03571,0,0,1,-17.6786,0)">
            <path d="M495,536C495,534.344 493.702,533 492.103,533L469.897,533C468.298,533 467,534.344 467,536C467,537.656 468.298,539 469.897,539L492.103,539C493.702,539 495,537.656 495,536Z" style="fill:white;fill-opacity:0.45098;"/>
        </g>
        <g transform="matrix(-1.06667,0,0,0.857143,1044.17,74)">
            <path d="M509,521.5C509,519.568 507.74,518 506.188,518L496.813,518C495.26,518 494,519.568 494,521.5C494,523.432 495.26,525 496.813,525L506.188,525C507.74,525 509,523.432 509,521.5Z" style="fill:white;fill-opacity:0.470588;"/>
        </g>
        <g transform="matrix(1,0,0,0.244444,0,381.556)">
            <rect x="487" y="505" width="34" height="45" style="fill:rgb(255,152,140);"/>
        </g>
    </g>
    <g id="pie-y-pierna1" serif:id="pie y pierna" transform="matrix(1.00426,0,0,1.00426,-297.724,-73.3795)">
        <rect x="487" y="505" width="34" height="45" style="fill:rgb(255,161,149);"/>
        <g transform="matrix(0.6875,0,0,1.35828,181.325,-191.41)">
            <path d="M504,541.178C504,536.665 496.76,533 487.842,533L472.158,533C463.24,533 456,536.665 456,541.178L456,542.822C456,547.335 463.24,551 472.158,551L487.842,551C496.76,551 504,547.335 504,542.822L504,541.178Z" style="fill:rgb(255,161,149);"/>
        </g>
        <g transform="matrix(0.854167,0,0,1.46939,81.3252,-252.633)">
            <path d="M504,541.178C504,536.665 497.696,533 489.931,533L470.069,533C462.304,533 456,536.665 456,541.178L456,542.822C456,547.335 462.304,551 470.069,551L489.931,551C497.696,551 504,547.335 504,542.822L504,541.178Z" style="fill:rgb(0,50,87);"/>
        </g>
        <g transform="matrix(1.02083,0,0,1.44444,-9.5,-238.889)">
            <path d="M504,540.144C504,536.201 499.47,533 493.891,533L466.109,533C460.53,533 456,536.201 456,540.144L456,543.856C456,547.799 460.53,551 466.109,551L493.891,551C499.47,551 504,547.799 504,543.856L504,540.144Z" style="fill:rgb(255,161,149);"/>
        </g>
        <rect x="446" y="548" width="89" height="10" style="fill:rgb(0,50,87);"/>
        <g transform="matrix(1.03571,0,0,1,-17.6786,0)">
            <path d="M495,536C495,534.344 493.702,533 492.103,533L469.897,533C468.298,533 467,534.344 467,536C467,537.656 468.298,539 469.897,539L492.103,539C493.702,539 495,537.656 495,536Z" style="fill:white;fill-opacity:0.45098;"/>
        </g>
        <g transform="matrix(-1.06667,0,0,0.857143,1044.17,74)">
            <path d="M509,521.5C509,519.568 507.74,518 506.188,518L496.813,518C495.26,518 494,519.568 494,521.5C494,523.432 495.26,525 496.813,525L506.188,525C507.74,525 509,523.432 509,521.5Z" style="fill:white;fill-opacity:0.470588;"/>
        </g>
        <g transform="matrix(1,0,0,0.244444,0,381.556)">
            <rect x="487" y="505" width="34" height="45" style="fill:rgb(255,152,140);"/>
        </g>
    </g>
    <g id="pantalones" transform="matrix(1.00426,0,0,1.00426,-297.251,-73.3795)">
        <rect x="480" y="477" width="47" height="31" style="fill:rgb(0,42,77);"/>
        <g transform="matrix(1,0,0,1,75.0496,0)">
            <rect x="480" y="477" width="47" height="31" style="fill:rgb(0,42,77);"/>
        </g>
        <g transform="matrix(0.808511,0,0,0.516129,133.988,230.806)">
            <rect x="480" y="477" width="47" height="31" style="fill:rgb(0,42,77);"/>
        </g>
    </g>
    <g transform="matrix(1.01149,0,0,1.24705,-301.666,-189.124)">
        <path d="M611,415.142C611,403.473 599.32,394 584.934,394L498.066,394C483.68,394 472,403.473 472,415.142L472,463.858C472,475.527 483.68,485 498.066,485L584.934,485C599.32,485 611,475.527 611,463.858L611,415.142Z" style="fill:rgb(0,42,77);"/>
    </g>
    <g transform="matrix(1.01149,0,0,1.05944,-301.666,-115.205)">
        <path d="M611,425.072C611,407.923 596.417,394 578.454,394L504.546,394C486.583,394 472,407.923 472,425.072L472,453.928C472,471.077 486.583,485 504.546,485L578.454,485C596.417,485 611,471.077 611,453.928L611,425.072Z" style="fill:rgb(0,71,115);"/>
    </g>
    <g transform="matrix(0.99623,0,0,1.44526,-292.407,-166.089)">
        <rect x="478" y="233" width="125" height="125" style="fill:rgb(255,176,168);"/>
        <clipPath id="_clip15">
            <rect x="478" y="233" width="125" height="125"/>
        </clipPath>
        <g clip-path="url(#_clip15)">
            <g transform="matrix(1.05104,0,0,0.860375,-27.5058,18.3774)">
                <path d="M603,285.629C603,256.582 574.995,233 540.5,233C506.005,233 478,256.582 478,285.629L478,305.371C478,334.418 506.005,358 540.5,358C574.995,358 603,334.418 603,305.371L603,285.629Z" style="fill:rgb(255,163,140);"/>
            </g>
            <g id="EFECTO-CURVA-CABELLO" serif:id="EFECTO CURVA CABELLO" transform="matrix(1.77658,0,0,1.3066,-390.44,-89.2348)">
                <g transform="matrix(-0.000123654,-1.46923,1.49811,-0.000126085,92.0609,944.332)">
                    <path d="M476.5,245C467.736,245.617 460.62,254.366 460.62,265C460.62,275.634 467.736,284.383 476.5,285L476.5,245Z" style="fill:rgb(255,101,101);"/>
                </g>
                <g transform="matrix(-0.000127446,-1.51429,1.21071,-0.000101897,201.541,966.584)">
                    <path d="M476.5,245C466.841,245 459,253.962 459,265C459,276.038 466.841,285 476.5,285C476.972,278.659 477.355,271.88 477.355,265C477.355,258.12 476.972,251.341 476.5,245Z" style="fill:rgb(255,101,101);"/>
                </g>
                <g transform="matrix(-0.000119862,-1.42417,1.57349,-0.000132428,141.417,920.501)">
                    <path d="M476.5,245C466.841,245 459,253.962 459,265C459,276.038 466.841,285 476.5,285L476.5,245Z" style="fill:rgb(255,101,101);"/>
                </g>
            </g>
        </g>
    </g>
    <g transform="matrix(0.99012,0,0,1.00426,-288.609,-73.3795)">
        <rect x="469" y="400" width="142" height="33" style="fill:rgb(0,192,33);"/>
    </g>
    <g transform="matrix(1.08681,0,0,1.05712,-342.993,-94.5219)">
        <path d="M615,390.5C615,385.257 610.859,381 605.759,381L478.241,381C473.141,381 469,385.257 469,390.5C469,395.743 473.141,400 478.241,400L605.759,400C610.859,400 615,395.743 615,390.5Z" style="fill:rgb(0,135,38);"/>
    </g>
    <g id="manchas-en-el-polo" serif:id="manchas en el polo" transform="matrix(1.00426,0,0,1.00426,-297.251,-73.3795)">
        <g transform="matrix(1.28571,0,0,1.1,-139.714,-41.7)">
            <path d="M489,411.091C489,408.833 487.432,407 485.5,407C483.568,407 482,408.833 482,411.091L482,422.909C482,425.167 483.568,427 485.5,427C487.432,427 489,425.167 489,422.909L489,411.091Z" style="fill:rgb(238,241,0);"/>
        </g>
        <g transform="matrix(1.28571,0,0,0.9,-103.219,44.7)">
            <path d="M489,412C489,409.24 487.432,407 485.5,407C483.568,407 482,409.24 482,412L482,422C482,424.76 483.568,427 485.5,427C487.432,427 489,424.76 489,422L489,412Z" style="fill:rgb(238,241,0);"/>
        </g>
        <g transform="matrix(1.28571,0,0,0.65,-68.595,145.45)">
            <path d="M489,413.923C489,410.102 487.432,407 485.5,407C483.568,407 482,410.102 482,413.923L482,420.077C482,423.898 483.568,427 485.5,427C487.432,427 489,423.898 489,420.077L489,413.923Z" style="fill:rgb(238,241,0);"/>
        </g>
        <g transform="matrix(1,0,0,0.95,86.8991,25.35)">
            <path d="M489,410.684C489,408.651 487.432,407 485.5,407C483.568,407 482,408.651 482,410.684L482,423.316C482,425.349 483.568,427 485.5,427C487.432,427 489,425.349 489,423.316L489,410.684Z" style="fill:rgb(238,241,0);"/>
        </g>
        <g transform="matrix(1.28571,0,0,1.1,-27.6546,-41.7)">
            <path d="M489,411.091C489,408.833 487.432,407 485.5,407C483.568,407 482,408.833 482,411.091L482,422.909C482,425.167 483.568,427 485.5,427C487.432,427 489,425.167 489,422.909L489,411.091Z" style="fill:rgb(238,241,0);"/>
        </g>
        <g transform="matrix(1.13514,0,0,0.777778,-69.4595,83.5556)">
            <path d="M514,389.5C514,387.016 512.618,385 510.917,385L480.083,385C478.382,385 477,387.016 477,389.5C477,391.984 478.382,394 480.083,394L510.917,394C512.618,394 514,391.984 514,389.5Z" style="fill:rgb(238,241,0);"/>
        </g>
    </g>
    <g transform="matrix(1.09255,0,0,1.23602,-346.151,-141.438)">
        <path d="M588,291.5C588,287.913 584.705,285 580.646,285L504.354,285C500.295,285 497,287.913 497,291.5C497,295.087 500.295,298 504.354,298L580.646,298C584.705,298 588,295.087 588,291.5Z" style="fill:rgb(255,128,140);"/>
    </g>
    <g id="orjas" transform="matrix(1.00426,0,0,1.00426,-297.251,-73.3795)">
        <g transform="matrix(1.1118,0,0,1,-61.6522,0)">
            <path d="M623,318.5C623,310.497 617.156,304 609.958,304L475.042,304C467.844,304 462,310.497 462,318.5C462,326.503 467.844,333 475.042,333L609.958,333C617.156,333 623,326.503 623,318.5Z" style="fill:rgb(255,91,111);"/>
            <clipPath id="_clip16">
                <path d="M623,318.5C623,310.497 617.156,304 609.958,304L475.042,304C467.844,304 462,310.497 462,318.5C462,326.503 467.844,333 475.042,333L609.958,333C617.156,333 623,326.503 623,318.5Z"/>
            </clipPath>
            <g clip-path="url(#_clip16)">
                <g transform="matrix(1,0,0,1,0,-8)">
                    <path d="M623,318.5C623,310.497 617.156,304 609.958,304L475.042,304C467.844,304 462,310.497 462,318.5C462,326.503 467.844,333 475.042,333L609.958,333C617.156,333 623,326.503 623,318.5Z" style="fill:rgb(255,144,140);"/>
                </g>
            </g>
        </g>
        <g transform="matrix(1.10711,-1.10711,1.04044,1.04044,-374.423,499.365)">
            <path d="M466,312.66C466,311.192 464.88,310 463.5,310C462.12,310 461,311.192 461,312.66L461,319.34C461,320.808 462.12,322 463.5,322C464.88,322 466,320.808 466,319.34L466,312.66Z" style="fill:rgb(255,101,120);"/>
        </g>
        <g transform="matrix(1.10711,-1.10711,1.04044,1.04044,-226.734,499.365)">
            <path d="M466,312.66C466,311.192 464.88,310 463.5,310C462.12,310 461,311.192 461,312.66L461,319.34C461,320.808 462.12,322 463.5,322C464.88,322 466,320.808 466,319.34L466,312.66Z" style="fill:rgb(255,101,120);"/>
        </g>
        <g transform="matrix(1.10711,1.10711,-1.04044,1.04044,283.135,-526.923)">
            <path d="M466,312.66C466,311.192 464.88,310 463.5,310C462.12,310 461,311.192 461,312.66L461,319.34C461,320.808 462.12,322 463.5,322C464.88,322 466,320.808 466,319.34L466,312.66Z" style="fill:rgb(255,101,120);"/>
        </g>
        <g transform="matrix(1.10711,1.10711,-1.04044,1.04044,430.824,-526.923)">
            <path d="M466,312.66C466,311.192 464.88,310 463.5,310C462.12,310 461,311.192 461,312.66L461,319.34C461,320.808 462.12,322 463.5,322C464.88,322 466,320.808 466,319.34L466,312.66Z" style="fill:rgb(255,101,120);"/>
        </g>
    </g>
    <g transform="matrix(-1.15956,-1.42006e-16,2.7795e-16,-2.26964,863.523,975.856)">
        <path d="M581,328C581,314.193 559.286,303 532.5,303C505.714,303 484,314.193 484,328L581,328Z" style="fill:rgb(0,14,48);"/>
        <clipPath id="_clip17">
            <path d="M581,328C581,314.193 559.286,303 532.5,303C505.714,303 484,314.193 484,328L581,328Z"/>
        </clipPath>
        <g clip-path="url(#_clip17)">
            <g transform="matrix(-1.36516,8.54148e-17,-1.63589e-16,-0.682466,1268.57,548.478)">
                <circle cx="539.5" cy="366.5" r="29.5" style="fill:rgb(255,53,101);"/>
            </g>
            <g transform="matrix(-0.884305,5.53287e-17,-1.78982e-16,-0.746681,1010.03,558.89)">
                <path d="M588,309.583C588,305.95 583.125,303 577.12,303L503.88,303C497.875,303 493,305.95 493,309.583L493,312.417C493,316.05 497.875,319 503.88,319L577.12,319C583.125,319 588,316.05 588,312.417L588,309.583Z" style="fill:white;"/>
            </g>
            <g transform="matrix(-0.890816,5.57361e-17,-1.27276e-16,-0.530973,1014.88,492.292)">
                <path d="M559,339C559,336.24 556.386,334 553.167,334L529.833,334C526.614,334 524,336.24 524,339C524,341.76 526.614,344 529.833,344L553.167,344C556.386,344 559,341.76 559,339Z" style="fill:white;fill-opacity:0.584314;"/>
            </g>
        </g>
    </g>
    <g id="ojos" transform="matrix(1.00426,0,0,1.00426,-297.251,-73.3795)">
        <g transform="matrix(1.0625,0,0,1,-30.1875,1)">
            <path d="M515,284.5C515,279.809 511.415,276 507,276C502.585,276 499,279.809 499,284.5L499,291.5C499,296.191 502.585,300 507,300C511.415,300 515,296.191 515,291.5L515,284.5Z" style="fill:white;"/>
        </g>
        <g transform="matrix(1.0625,0,0,1,34.7811,1)">
            <path d="M515,284.5C515,279.809 511.415,276 507,276C502.585,276 499,279.809 499,284.5L499,291.5C499,296.191 502.585,300 507,300C511.415,300 515,296.191 515,291.5L515,284.5Z" style="fill:white;"/>
        </g>
        <g transform="matrix(0.442708,0,0,0.5,284.089,146)">
            <path d="M515,283.083C515,279.174 511.415,276 507,276C502.585,276 499,279.174 499,283.083L499,292.917C499,296.826 502.585,300 507,300C511.415,300 515,296.826 515,292.917L515,283.083Z" style="fill:rgb(0,29,58);"/>
        </g>
        <g transform="matrix(0.442708,0,0,0.5,349.057,146)">
            <path d="M515,283.083C515,279.174 511.415,276 507,276C502.585,276 499,279.174 499,283.083L499,292.917C499,296.826 502.585,300 507,300C511.415,300 515,296.826 515,292.917L515,283.083Z" style="fill:rgb(0,29,58);"/>
        </g>
    </g>
    <g id="cejas" transform="matrix(1.12839,0,0,1.00426,-364.966,-73.3795)">
        <path d="M586,280.5C586,276.361 583.009,273 579.325,273L503.675,273C499.991,273 497,276.361 497,280.5C497,284.639 499.991,288 503.675,288L579.325,288C583.009,288 586,284.639 586,280.5Z" style="fill:rgb(255,43,139);"/>
        <clipPath id="_clip18">
            <path d="M586,280.5C586,276.361 583.009,273 579.325,273L503.675,273C499.991,273 497,276.361 497,280.5C497,284.639 499.991,288 503.675,288L579.325,288C583.009,288 586,284.639 586,280.5Z"/>
        </clipPath>
        <g clip-path="url(#_clip18)">
            <g id="cejas1" serif:id="cejas" transform="matrix(0.3,0,0,0.3,354.13,193.1)">
                <path d="M586,280.5C586,276.361 583.009,273 579.325,273L503.675,273C499.991,273 497,276.361 497,280.5C497,284.639 499.991,288 503.675,288L579.325,288C583.009,288 586,284.639 586,280.5Z" style="fill:white;fill-opacity:0.505882;"/>
            </g>
        </g>
    </g>
    <g id="manchas-en-el-pelo-superior" serif:id="manchas en el pelo superior" transform="matrix(1.00426,0,0,1.00426,-297.251,-73.3795)">
        <g transform="matrix(0.884615,0,0,0.884615,51.5385,15.2692)">
            <circle cx="477" cy="154" r="13" style="fill:rgb(255,91,158);"/>
        </g>
        <g transform="matrix(0.461538,0,0,0.461538,302.846,73.9231)">
            <circle cx="477" cy="154" r="13" style="fill:rgb(255,91,158);"/>
        </g>
        <g transform="matrix(1.57692,0,0,1.57692,-165.692,-83.3462)">
            <circle cx="477" cy="154" r="13" style="fill:rgb(255,91,158);"/>
        </g>
        <g transform="matrix(0.576923,0,0,0.576923,363.742,75.6538)">
            <circle cx="477" cy="154" r="13" style="fill:rgb(255,91,158);"/>
        </g>
        <g transform="matrix(1.65385,0,0,1.65385,-148.951,-50.0953)">
            <circle cx="477" cy="154" r="13" style="fill:rgb(255,91,158);"/>
        </g>
        <g transform="matrix(0.307692,0,0,0.307692,440.403,155.712)">
            <circle cx="477" cy="154" r="13" style="fill:rgb(255,91,158);"/>
        </g>
        <g transform="matrix(0.192308,0,0,0.192308,550.942,216.982)">
            <circle cx="477" cy="154" r="13" style="fill:rgb(255,91,158);"/>
        </g>
        <g transform="matrix(1.57692,0,0,1.57692,-277.52,-51.2492)">
            <circle cx="477" cy="154" r="13" style="fill:rgb(255,91,158);"/>
        </g>
        <g transform="matrix(0.692308,0,0,0.692308,109.114,119.357)">
            <circle cx="477" cy="154" r="13" style="fill:rgb(255,91,158);"/>
        </g>
    </g>
    <g id="EFECTO-CURVA-CABELLO1" serif:id="EFECTO CURVA CABELLO" transform="matrix(1.00426,0,0,1.00426,-297.251,-73.3795)">
        <g transform="matrix(-0.000127446,-1.51429,1.16071,-9.76884e-05,170.186,966.583)">
            <path d="M476.5,245C466.841,245 459,253.962 459,265C459,276.038 466.841,285 476.5,285C470.75,282.303 466.081,274.269 466.081,265C466.081,255.731 470.75,247.697 476.5,245Z" style="fill:rgb(183,0,44);"/>
        </g>
        <g transform="matrix(-0.000127446,-1.51429,1.21071,-0.000101897,201.541,966.584)">
            <path d="M476.5,245C466.841,245 459,253.962 459,265C459,276.038 466.841,285 476.5,285C470.74,282.309 466.063,274.274 466.063,265C466.063,255.726 470.74,247.691 476.5,245Z" style="fill:rgb(183,0,44);"/>
        </g>
        <g transform="matrix(-0.000127446,-1.51429,1.13571,-9.55844e-05,263.916,966.582)">
            <path d="M476.5,245C466.841,245 459,253.962 459,265C459,276.038 466.841,285 476.5,285C471.025,282.112 466.58,274.145 466.58,265C466.58,255.855 471.025,247.888 476.5,245Z" style="fill:rgb(183,0,44);"/>
        </g>
        <g transform="matrix(-0.000117827,-1.4,1.11071,-9.34803e-05,312.427,915.125)">
            <path d="M476.5,245C466.841,245 459,253.962 459,265C459,276.038 466.841,285 476.5,285C470.855,282.23 466.273,274.222 466.273,265C466.273,255.778 470.855,247.77 476.5,245Z" style="fill:rgb(183,0,44);"/>
        </g>
    </g>
    <g id="efecto-parejamiento" serif:id="efecto parejamiento" transform="matrix(1.00426,0,0,0.863431,-297.251,-37.0564)">
        <g transform="matrix(1.15,0,0,1.30952,-70.55,-67)">
            <path d="M497,230.428C497,219.154 488.038,210 477,210C465.962,210 457,219.154 457,230.428L457,231.572C457,242.846 465.962,252 477,252C488.038,252 497,242.846 497,231.572L497,230.428Z" style="fill:rgb(255,42,102);"/>
        </g>
        <g transform="matrix(1.15,0,0,1.30952,-26.6854,-64.953)">
            <path d="M497,230.428C497,219.154 488.038,210 477,210C465.962,210 457,219.154 457,230.428L457,231.572C457,242.846 465.962,252 477,252C488.038,252 497,242.846 497,231.572L497,230.428Z" style="fill:rgb(255,42,102);"/>
        </g>
        <g transform="matrix(1.15,0,0,1.30952,16.5944,-65.8303)">
            <path d="M497,230.428C497,219.154 488.038,210 477,210C465.962,210 457,219.154 457,230.428L457,231.572C457,242.846 465.962,252 477,252C488.038,252 497,242.846 497,231.572L497,230.428Z" style="fill:rgb(255,42,102);"/>
        </g>
        <g transform="matrix(1.15,0,0,1.30952,58.1196,-64.953)">
            <path d="M497,230.428C497,219.154 488.038,210 477,210C465.962,210 457,219.154 457,230.428L457,231.572C457,242.846 465.962,252 477,252C488.038,252 497,242.846 497,231.572L497,230.428Z" style="fill:rgb(255,42,102);"/>
        </g>
    </g>
</svg>
